<svg xmlns="http://www.w3.org/2000/svg" width="62" height="37" viewBox="0 0 62 37" fill="none"><path d="M 42.623 18.852 C 43.69 18.852 44.64 18.753 45.471 18.554 C 46.303 18.355 46.719 18.057 46.719 17.659 C 46.719 17.406 46.638 17.198 46.475 17.035 C 45.372 17.433 44.169 17.632 42.867 17.632 C 41.095 17.632 39.603 17.026 38.392 15.814 C 37.18 14.585 36.574 12.822 36.574 10.525 C 36.574 9.006 36.891 7.532 37.524 6.103 C 39.802 5.832 41.574 5.38 42.84 4.747 C 44.612 3.843 46.132 2.387 47.397 0.38 L 52.253 0.38 C 53.808 0.38 54.956 0.669 55.698 1.248 C 56.566 1.953 57 3.192 57 4.964 L 57 33.772 C 56.078 34.622 55.002 35.273 53.772 35.725 C 52.56 36.159 51.313 36.376 50.029 36.376 C 47.913 36.376 46.195 35.869 44.875 34.857 C 43.374 33.717 42.623 32.054 42.623 29.866 Z" fill="rgb(254,123,138)"></path><path d="M 26.022 24.657 C 25.48 24.259 24.739 23.572 23.798 22.596 C 22.677 21.474 21.709 20.362 20.896 19.259 C 20.1 18.156 19.304 16.872 18.509 15.407 C 17.713 13.943 17.27 13.029 17.179 12.668 C 16.619 12.668 16.339 12.993 16.339 13.644 C 16.339 14.132 16.628 14.955 17.207 16.113 C 17.785 17.252 18.662 18.635 19.838 20.263 C 21.031 21.872 22.107 23.102 23.066 23.952 C 24.06 24.856 24.784 25.308 25.236 25.308 C 25.688 25.308 25.95 25.091 26.022 24.657 Z M 31.909 31.737 C 29.16 34.793 25.39 36.321 20.597 36.321 C 15.805 36.321 12.044 34.793 9.313 31.737 C 6.438 28.554 5 24.115 5 18.418 C 5 12.722 6.456 8.228 9.367 4.937 C 12.297 1.646 16.04 0 20.597 0 C 25.154 0 28.889 1.646 31.8 4.937 C 34.73 8.228 36.195 12.722 36.195 18.418 C 36.195 24.097 34.766 28.536 31.909 31.737 Z" fill="rgb(254,123,138)"></path></svg>