<svg width="62" height="37" viewBox="0 0 62 37" fill="none" xmlns="http://www.w3.org/2000/svg">
<path d="M61.9181 13.0715C61.9181 16.0005 61.0539 18.4383 59.3257 20.3849C57.3791 22.568 54.5319 24.0325 50.7843 24.7784C50.7843 25.4697 51.0936 25.8154 51.7121 25.8154C52.8037 25.8154 54.1408 25.4697 55.7235 24.7784C57.3063 24.0871 58.5343 23.2684 59.4075 22.3224C61.1358 24.0507 62 26.3338 62 29.1719C62 31.9917 61.1904 34.2112 59.5713 35.8303H35.0387C33.6379 33.7382 32.9375 31.4277 32.9375 28.899C32.9375 26.352 33.4287 24.2144 34.411 22.4861C37.995 21.7948 41.2423 20.5304 44.1531 18.693C47.0639 16.8556 48.5193 14.909 48.5193 12.8532C48.5193 12.3074 48.392 11.8617 48.1373 11.5161C47.9008 11.1704 47.5642 10.9976 47.1276 10.9976C46.2362 10.9976 45.7904 11.4706 45.7904 12.4166C45.7904 13.3444 46.1088 14.0266 46.7456 14.4632C45.8541 15.7913 44.4806 17.0102 42.625 18.1199C40.7693 19.2297 38.9501 20.0301 37.1672 20.5213C33.9289 18.3746 32.3098 15.4729 32.3098 11.8162C32.3098 8.15955 33.7561 5.25785 36.6487 3.11114C39.3412 1.10996 42.7887 0.109375 46.9912 0.109375C51.2118 0.109375 54.7048 1.21912 57.47 3.4386C60.4354 5.84001 61.9181 9.05098 61.9181 13.0715Z" fill="#F582EF"/>
<path d="M21.1488 24.8055C20.603 24.4052 19.8571 23.7139 18.9111 22.7315C17.7832 21.6036 16.8099 20.4847 15.9912 19.375C15.1907 18.2653 14.3903 16.9736 13.5898 15.5C12.7893 14.0264 12.3436 13.1077 12.2526 12.7438C11.6887 12.7438 11.4067 13.0713 11.4067 13.7262C11.4067 14.2174 11.6978 15.0452 12.2799 16.2095C12.8621 17.3556 13.7444 18.7474 14.9269 20.3847C16.1276 22.0038 17.2101 23.2409 18.1743 24.096C19.1749 25.0056 19.9026 25.4604 20.3574 25.4604C20.8122 25.4604 21.076 25.2421 21.1488 24.8055ZM27.0704 31.9278C24.3052 35.0023 20.512 36.5396 15.691 36.5396C10.87 36.5396 7.08597 35.0023 4.33891 31.9278C1.4463 28.7259 0 24.2597 0 18.529C0 12.7984 1.4645 8.27758 4.39349 4.96655C7.34067 1.65552 11.1065 0 15.691 0C20.2755 0 24.0323 1.65552 26.9613 4.96655C29.9085 8.27758 31.382 12.7984 31.382 18.529C31.382 24.2415 29.9448 28.7077 27.0704 31.9278Z" fill="#F582EF"/>
</svg>
