<svg width="62" height="37" viewBox="0 0 62 37" fill="none" xmlns="http://www.w3.org/2000/svg">
<path d="M39.1327 18.4601H39.589C39.6426 18.478 39.7858 18.487 40.0184 18.487C40.3405 20.5321 41.1815 22.1377 42.5413 23.3038C43.9012 24.4699 45.4579 25.0529 47.2115 25.0529C48.6071 25.0529 49.305 24.7839 49.305 24.2457C49.305 23.9945 49.2602 23.7972 49.1708 23.6536C48.7234 23.7433 48.1419 23.7882 47.4262 23.7882C45.7263 23.7882 44.2949 23.25 43.1318 22.1736C41.9688 21.0972 41.3872 19.662 41.3872 17.8681C41.3872 16.0741 41.9419 14.6479 43.0513 13.5894C44.1786 12.513 45.6458 11.9748 47.453 11.9748H47.9361C48.0793 11.9748 48.2761 11.9928 48.5266 12.0286C48.5803 11.921 48.6071 11.8044 48.6071 11.6788C48.6071 11.1047 48.133 10.8177 47.1846 10.8177C45.61 10.8177 44.1607 11.2752 42.8366 12.1901C41.5304 13.105 40.6357 14.4505 40.1526 16.2266C37.4686 16.2266 35.4019 15.5897 33.9526 14.316C32.718 13.2396 32.1006 11.8313 32.1006 10.0911C32.1006 7.16696 33.4247 4.75405 36.0729 2.85243C38.739 0.95081 42.2014 0 46.46 0C50.7364 0 54.2614 1.06742 57.0348 3.20226C59.7904 5.33709 61.1682 8.09983 61.1682 11.4905C61.1682 13.7329 60.363 15.5807 58.7526 17.0339C57.9653 16.6571 57.2764 16.4687 56.6859 16.4687C56.0954 16.4687 55.8002 16.7109 55.8002 17.1953C55.8002 17.4106 55.8539 17.5631 55.9612 17.6528C57.3748 17.6528 58.6631 18.173 59.8262 19.2135C61.2755 20.5052 62.0002 22.344 62.0002 24.73C62.0002 28.3539 60.4703 31.2063 57.4106 33.2873C54.6014 35.1889 51.0227 36.1398 46.6747 36.1398C42.3445 36.1398 38.7748 35.162 35.9656 33.2066C33.1742 31.2512 31.7786 28.6499 31.7786 25.4028C31.7786 23.4115 32.4138 21.761 33.6842 20.4514C34.9725 19.1238 36.7887 18.4601 39.1327 18.4601Z" fill="#FE7B8A"/>
<path d="M20.8009 24.5146C20.2641 24.12 19.5304 23.4383 18.6 22.4695C17.4906 21.3572 16.5333 20.2539 15.7281 19.1596C14.9408 18.0653 14.1535 16.7916 13.3662 15.3384C12.5789 13.8853 12.1405 12.9793 12.0511 12.6206C11.4964 12.6206 11.219 12.9435 11.219 13.5893C11.219 14.0737 11.5053 14.8899 12.0779 16.0381C12.6505 17.1683 13.5183 18.5407 14.6814 20.1553C15.8623 21.7519 16.927 22.9718 17.8753 23.815C18.8595 24.712 19.5752 25.1605 20.0225 25.1605C20.4698 25.1605 20.7293 24.9452 20.8009 24.5146ZM26.6251 31.5381C23.9053 34.5699 20.1746 36.0858 15.4329 36.0858C10.6912 36.0858 6.96941 34.5699 4.26753 31.5381C1.42251 28.3807 0 23.9765 0 18.3254C0 12.6744 1.4404 8.21633 4.32121 4.95128C7.21991 1.68623 10.9238 0.0537109 15.4329 0.0537109C19.942 0.0537109 23.6369 1.68623 26.5177 4.95128C29.4164 8.21633 30.8658 12.6744 30.8658 18.3254C30.8658 23.9585 29.4522 28.3627 26.6251 31.5381Z" fill="#FE7B8A"/>
</svg>
