<svg width="62" height="37" viewBox="0 0 62 37" fill="none" xmlns="http://www.w3.org/2000/svg">
<path d="M44.1948 19.1599H47.0299V15.554H46.447C45.7934 16.8277 45.0427 17.8592 44.1948 18.6486V19.1599ZM44.4598 31.1616H46.606C47.1712 31.1616 47.5775 31.1168 47.8248 31.0271C48.0721 30.9194 48.1957 30.749 48.1957 30.5158C48.1957 30.2646 48.1604 30.0583 48.0897 29.8969H40.0615C37.094 29.8969 34.8242 28.955 33.2521 27.0713C31.8213 25.385 31.106 23.1066 31.106 20.2363C31.106 18.7473 31.2296 17.4466 31.4769 16.3344C34.0911 14.056 36.5199 11.4637 38.7632 8.55746C39.9997 6.94287 41.8279 4.22499 44.2478 0.403809H51.0042C53.2122 0.403809 55.0139 1.01376 56.4094 2.23367C57.8048 3.43564 58.5025 5.0861 58.5025 7.18506V17.4646H57.9461C57.1866 17.4646 56.8068 17.7696 56.8068 18.3795V18.7293H61.0726C61.6909 20.308 62 22.111 62 24.1382C62 25.5375 61.7085 26.7664 61.1256 27.8248C60.5427 28.8653 59.6595 29.5201 58.476 29.7892V33.9064C56.4977 35.3595 54.1042 36.0861 51.2957 36.0861C48.5048 36.0861 46.2262 35.4134 44.4598 34.0679V31.1616Z" fill="#F582EF"/>
<path d="M20.5342 24.4609C20.0043 24.0663 19.2801 23.3846 18.3615 22.4158C17.2664 21.3035 16.3214 20.2002 15.5265 19.1059C14.7493 18.0116 13.9721 16.7378 13.1949 15.2847C12.4177 13.8316 11.9849 12.9256 11.8966 12.5668C11.349 12.5668 11.0752 12.8898 11.0752 13.5356C11.0752 14.02 11.3578 14.8362 11.9231 15.9844C12.4883 17.1146 13.345 18.487 14.4932 20.1016C15.659 21.6982 16.71 22.9181 17.6462 23.7613C18.6177 24.6583 19.3242 25.1068 19.7658 25.1068C20.2074 25.1068 20.4635 24.8915 20.5342 24.4609ZM26.2838 31.4844C23.5989 34.5162 19.916 36.0321 15.235 36.0321C10.5541 36.0321 6.88006 34.5162 4.21282 31.4844C1.40427 28.327 0 23.9227 0 18.2717C0 12.6207 1.42194 8.16262 4.26581 4.89757C7.12735 1.63252 10.7838 0 15.235 0C19.6863 0 23.3339 1.63252 26.1778 4.89757C29.0393 8.16262 30.4701 12.6207 30.4701 18.2717C30.4701 23.9048 29.0746 28.309 26.2838 31.4844Z" fill="#F582EF"/>
</svg>
