<svg width="1200" height="380" fill="none" xmlns="http://www.w3.org/2000/svg"><path d="M1081.3 205.38v-17.608h52.83v17.608h-14.42l-21.84 23.99 29.43 42.039h9.03v17.608h-52.83v-17.608h7.05l-24.65-35.216 28.06-30.813h-12.66Zm-61.62-52.823h41.81v118.852h11.01v17.608h-52.82v-17.608h11V170.164h-11v-17.607Zm-52.318 33.015c5.136 0 9.63.697 13.481 2.091 3.852 1.394 7.007 3.32 9.465 5.778 2.457 2.421 4.438 5.52 5.942 9.299 1.541 3.741 2.605 7.777 3.192 12.105.628 4.292.938 9.208.938 14.747v41.818h11v17.608h-52.821V271.41h11.004v-44.019c0-5.796-.531-10.308-1.595-13.536-1.027-3.228-2.531-5.448-4.512-6.658-1.944-1.211-4.604-1.816-7.979-1.816-3.081 0-6.236 1.302-9.464 3.907-3.228 2.604-6.291 6.236-9.189 10.895l-.275 51.227h11.005v17.608H894.73V271.41h11.005v-66.029H894.73v-17.608h34.171l7.703 14.912c1.357-2.458 2.916-4.659 4.677-6.603 1.797-1.981 3.925-3.778 6.383-5.392 2.494-1.651 5.411-2.917 8.749-3.797 3.338-.881 6.988-1.321 10.949-1.321Zm-93.032 37.142v48.696h11.005v17.608h-34.28l-4.897-11.445c-3.742 5.356-8.089 9.024-13.041 11.005-4.915 1.981-11.793 2.971-20.634 2.971-4.585 0-8.859-.807-12.821-2.421-3.925-1.577-7.281-3.742-10.069-6.493-2.751-2.751-4.916-6.053-6.493-9.904-1.541-3.852-2.311-7.979-2.311-12.381 0-7.593 2.971-13.884 8.914-18.873 5.943-5.026 13.536-7.538 22.78-7.538 7.447 0 13.609.715 18.488 2.146 4.879 1.393 9.061 3.631 12.546 6.712v-23.33c0-3.301-.459-6.052-1.376-8.253-.88-2.238-2.219-3.944-4.017-5.118-1.797-1.21-3.815-2.054-6.052-2.531-2.238-.477-4.916-.715-8.034-.715-2.494 0-4.75.532-6.768 1.596a17.3 17.3 0 0 1 1.706 7.538c0 4.879-1.724 9.042-5.172 12.49-3.412 3.412-7.557 5.118-12.436 5.118s-9.042-1.706-12.49-5.118c-3.412-3.448-5.118-7.611-5.118-12.49 0-2.495.477-4.842 1.431-7.043a18.339 18.339 0 0 1 4.072-5.778 39.7 39.7 0 0 1 4.567-4.127c1.577-1.247 3.558-2.476 5.942-3.686 2.421-1.247 5.044-2.275 7.869-3.082 2.824-.807 6.199-1.449 10.124-1.925 3.962-.514 8.291-.771 12.986-.771 6.089 0 11.812.899 17.168 2.696 5.355 1.798 9.977 4.292 13.866 7.484 3.888 3.191 6.951 7.116 9.189 11.775 2.237 4.659 3.356 9.721 3.356 15.187Zm-30.813 41.873v-7.593a32.853 32.853 0 0 0-7.704-5.448c-2.824-1.504-5.447-2.256-7.868-2.256-5.209 0-8.877.881-11.005 2.642-2.128 1.724-3.191 4.53-3.191 8.418 0 4.659.917 8.089 2.751 10.29 1.834 2.201 5.245 3.301 10.234 3.301 2.825 0 5.759-.899 8.804-2.696 3.082-1.834 5.741-4.053 7.979-6.658Zm-200.185-112.03h57.225c13.316 0 23.752.421 31.309 1.265 7.593.844 13.499 2.164 17.718 3.962 4.255 1.761 8.162 4.42 11.72 7.978 3.191 3.192 5.594 7.209 7.208 12.051 1.651 4.805 2.476 9.959 2.476 15.462 0 5.429-1.834 10.803-5.502 16.122-3.668 5.319-8.731 10.051-15.187 14.196 7.52 2.421 13.206 5.906 17.058 10.455 3.888 4.512 5.832 10.362 5.832 17.552 0 12.289-4.108 21.698-12.325 28.228-1.798 1.43-3.613 2.641-5.448 3.631-1.834.991-4.071 1.834-6.713 2.531a76.895 76.895 0 0 1-7.868 1.651c-2.604.367-6.108.66-10.51.881-4.402.22-8.73.366-12.985.44-4.219.036-9.813.055-16.783.055h-57.225v-17.608h17.608V170.164h-17.608v-17.607Zm52.823 17.607v48.422h8.804c17.608 0 26.412-8.07 26.412-24.211 0-3.485-.184-6.438-.55-8.859-.367-2.458-1.028-4.714-1.981-6.768-.917-2.054-2.201-3.668-3.852-4.842-1.651-1.21-3.76-2.128-6.328-2.751-2.568-.66-5.667-.991-9.299-.991h-13.206Zm0 66.029v35.216h13.206c8.841 0 15.077-1.302 18.708-3.907 3.669-2.604 5.503-7.171 5.503-13.701 0-4.475-.917-7.96-2.751-10.454-1.798-2.531-4.732-4.347-8.804-5.448-4.072-1.137-9.758-1.706-17.058-1.706h-8.804Zm-221.571 86.775c-1.944-2.935-2.916-6.181-2.916-9.739 0-4.879 1.706-9.043 5.117-12.491 3.448-3.411 7.612-5.117 12.491-5.117s9.024 1.706 12.435 5.117c3.448 3.448 5.172 7.612 5.172 12.491 0 1.027-.091 2.017-.275 2.971.147.037.275.055.386.055 2.641 0 5.869-4.365 9.684-13.096l4.127-9.464-38.792-88.314h-10.345v-17.608h61.627v17.608h-18.103l17.443 39.618c2.237 5.209 3.852 9.611 4.842 13.205.99-3.594 2.604-7.996 4.842-13.205l17.388-39.618H544.3v-17.608h46.22v17.608h-11.665l-36.756 83.637c-1.908 4.329-3.632 8.052-5.172 11.17a122.075 122.075 0 0 1-5.118 9.574c-1.87 3.265-3.686 6.016-5.447 8.254a51.477 51.477 0 0 1-5.998 6.383c-2.201 2.017-4.493 3.613-6.878 4.787-2.384 1.21-5.025 2.146-7.923 2.806-2.898.697-6.016 1.045-9.354 1.045-3.118 0-5.869-.256-8.254-.77-2.384-.477-4.42-1.21-6.108-2.201-1.65-.954-3.026-1.999-4.126-3.136-1.101-1.101-2.146-2.421-3.137-3.962ZM213.185 176.051c-3.412-3.448-5.117-7.611-5.117-12.49 0-4.879 1.705-9.024 5.117-12.436 3.448-3.448 7.611-5.172 12.49-5.172 4.879 0 9.024 1.724 12.436 5.172 3.448 3.412 5.172 7.557 5.172 12.436s-1.724 9.042-5.172 12.49c-3.412 3.412-7.557 5.118-12.436 5.118s-9.042-1.706-12.49-5.118Zm-13.921 11.721h41.818v83.636h11.005v17.608h-52.823v-17.608h11.005v-66.029h-11.005v-17.607ZM64.01 289.017v-17.608h17.608V170.164H64.01v-17.607h57.225c13.316 0 23.752.421 31.309 1.265 7.593.844 13.499 2.164 17.718 3.962 4.255 1.761 8.162 4.42 11.72 7.978 3.191 3.192 5.594 7.209 7.208 12.051 1.651 4.805 2.476 9.959 2.476 15.462 0 4.475-.587 8.62-1.761 12.435-1.137 3.778-2.769 7.135-4.897 10.069-2.091 2.898-4.677 5.503-7.758 7.814-3.045 2.274-6.42 4.2-10.125 5.777-3.705 1.578-7.813 2.88-12.325 3.907a111.411 111.411 0 0 1-13.921 2.256c-4.769.44-9.85.66-15.242.66h-8.804v35.216h22.01v17.608H64.01Zm52.823-70.431h8.804c17.608 0 26.412-8.07 26.412-24.211 0-2.788-.202-5.319-.606-7.593a23.854 23.854 0 0 0-2.091-6.603c-1.027-2.128-2.347-3.907-3.961-5.338-1.614-1.43-3.724-2.567-6.328-3.411-2.605-.844-5.613-1.266-9.024-1.266h-13.206v48.422ZM694.569 58.434h15.407v43.787h4.055v6.487h-19.462v-6.487h4.055v-37.3h-4.055v-6.487Zm-6.043 25.846v17.94h4.054v6.487h-12.629l-1.804-4.216c-1.379 1.973-2.98 3.324-4.805 4.054-1.811.73-4.345 1.095-7.602 1.095-1.689 0-3.264-.298-4.723-.892-1.446-.581-2.683-1.379-3.71-2.392-1.014-1.014-1.811-2.23-2.392-3.649-.568-1.419-.852-2.94-.852-4.561 0-2.798 1.095-5.116 3.285-6.954 2.189-1.851 4.986-2.777 8.392-2.777 2.744 0 5.014.263 6.812.79 1.797.514 3.338 1.338 4.622 2.474v-8.596c0-1.216-.169-2.23-.507-3.04-.324-.825-.818-1.453-1.48-1.886a6.302 6.302 0 0 0-2.23-.932c-.824-.176-1.811-.264-2.96-.264-.919 0-1.75.196-2.493.588a6.37 6.37 0 0 1 .628 2.777c0 1.798-.635 3.332-1.905 4.602-1.257 1.257-2.784 1.885-4.582 1.885-1.797 0-3.331-.628-4.602-1.885-1.256-1.27-1.885-2.804-1.885-4.602 0-.919.176-1.784.527-2.594a6.786 6.786 0 0 1 1.5-2.13 14.667 14.667 0 0 1 1.683-1.52c.581-.459 1.311-.912 2.189-1.358.892-.46 1.859-.838 2.899-1.135 1.041-.297 2.284-.534 3.73-.71a37.408 37.408 0 0 1 4.785-.283c2.243 0 4.351.33 6.324.993 1.974.662 3.676 1.581 5.109 2.757a12.571 12.571 0 0 1 3.385 4.338c.825 1.717 1.237 3.582 1.237 5.595Zm-11.352 15.426V96.91a12.107 12.107 0 0 0-2.838-2.007c-1.041-.554-2.007-.831-2.899-.831-1.919 0-3.271.324-4.055.973-.784.635-1.176 1.669-1.176 3.102 0 1.716.338 2.979 1.014 3.79.676.811 1.933 1.217 3.771 1.217 1.04 0 2.121-.331 3.243-.994a11.791 11.791 0 0 0 2.94-2.453Zm-42.127-36.407h4.054v8.109h11.352v6.487h-11.352v21.083c0 .919.257 1.689.77 2.311.528.621 1.352.932 2.474.932 1.257 0 2.324-.412 3.203-1.236.878-.838 1.432-2.048 1.662-3.63l4.865.812c-.202 1.581-.594 3.047-1.176 4.399a13.333 13.333 0 0 1-2.229 3.588c-.919 1.041-2.061 1.865-3.426 2.473-1.352.595-2.859.892-4.521.892-4.041 0-7.217-.939-9.528-2.818-2.297-1.892-3.446-4.466-3.446-7.723V77.895h-4.055v-6.487h.811c2.081 0 3.919-.595 5.514-1.784 1.595-1.19 3.271-3.298 5.028-6.325Zm-27.268 3.79c-1.257-1.27-1.885-2.805-1.885-4.602 0-1.797.628-3.325 1.885-4.581 1.271-1.27 2.805-1.906 4.602-1.906 1.797 0 3.325.635 4.581 1.906 1.271 1.256 1.906 2.784 1.906 4.581 0 1.797-.635 3.331-1.906 4.602-1.256 1.257-2.784 1.885-4.581 1.885-1.797 0-3.331-.628-4.602-1.885Zm-5.129 4.318h15.407v30.813h4.055v6.487H602.65v-6.487h4.055V77.894h-4.055v-6.487Zm-14.962-7.299c0-1.797.629-3.325 1.885-4.581 1.271-1.27 2.805-1.906 4.602-1.906.676 0 1.338.101 1.987.304.838.257 1.568.595 2.189 1.014.635.419 1.149.878 1.541 1.378.392.5.71 1.081.953 1.744a8.55 8.55 0 0 1 .486 1.966c.095.649.142 1.372.142 2.17 0 .824-.162 1.688-.486 2.594a11.813 11.813 0 0 1-1.298 2.575 18.878 18.878 0 0 1-1.743 2.25 16.177 16.177 0 0 1-1.926 1.824c2.014 1.987 3.021 4.426 3.021 7.319 0 2.162-.473 4.088-1.42 5.777a11.185 11.185 0 0 1-3.871 4.075c-1.649 1.027-3.535 1.804-5.656 2.331-2.109.527-4.406.79-6.893.79-2.054 0-4.021-.23-5.899-.689-1.23.19-2.176.52-2.838.994-.662.473-.993.912-.993 1.317 0 .406.168.778.506 1.115.338.338.71.507 1.115.507h11.353c5.716 0 9.845.818 12.386 2.453 2.554 1.635 3.831 4.332 3.831 8.089 0 1.811-.223 3.453-.669 4.926-.446 1.486-1.054 2.75-1.824 3.791a11.958 11.958 0 0 1-2.818 2.777 16.124 16.124 0 0 1-3.527 1.946c-1.23.487-2.602.879-4.116 1.176-1.513.297-2.98.5-4.399.608a53.133 53.133 0 0 1-4.541.182c-2.567 0-4.892-.283-6.973-.851-2.068-.554-3.771-1.318-5.109-2.291-1.324-.973-2.345-2.095-3.061-3.365a8.018 8.018 0 0 1-1.074-4.034c0-2.933 1.682-5.223 5.048-6.872-1.311-.663-2.345-1.568-3.102-2.717-.757-1.162-1.135-2.561-1.135-4.196a8.39 8.39 0 0 1 1.581-4.967c1.054-1.486 2.473-2.567 4.257-3.243-1.581-1.122-2.818-2.487-3.71-4.095-.878-1.609-1.317-3.453-1.317-5.535 0-1.73.304-3.284.912-4.662.621-1.379 1.453-2.52 2.493-3.426 1.054-.92 2.311-1.676 3.771-2.27a20.532 20.532 0 0 1 4.642-1.298 33.36 33.36 0 0 1 5.21-.385c4.271 0 7.913.703 10.927 2.108.689-.797 1.223-1.547 1.601-2.25-1.689-.108-3.122-.784-4.297-2.027-1.163-1.244-1.744-2.724-1.744-4.44Zm-6.081 12.974c-1.906 0-3.399.548-4.481 1.642-1.067 1.095-1.601 2.676-1.601 4.744 0 2.081.541 3.703 1.622 4.865 1.081 1.15 2.567 1.723 4.46 1.723 1.878 0 3.358-.58 4.439-1.743 1.095-1.176 1.642-2.79 1.642-4.845 0-2.04-.54-3.615-1.622-4.723-1.081-1.109-2.567-1.663-4.459-1.663Zm-6.183 31.625c-1.555 1.108-2.332 2.459-2.332 4.054 0 1.608.5 2.683 1.5 3.223 1 .555 2.933.832 5.798.832 6.487 0 9.731-1.622 9.731-4.866 0-.811-.338-1.554-1.014-2.23-.676-.675-1.419-1.013-2.23-1.013h-11.453Zm-28.788-41.618c-1.257-1.27-1.886-2.805-1.886-4.602 0-1.797.629-3.325 1.886-4.581 1.27-1.27 2.804-1.906 4.601-1.906 1.798 0 3.325.635 4.582 1.906 1.27 1.256 1.906 2.784 1.906 4.581 0 1.797-.636 3.331-1.906 4.602-1.257 1.257-2.784 1.885-4.582 1.885-1.797 0-3.331-.628-4.601-1.885Zm-5.129 4.318h15.407v30.813h4.054v6.487h-19.461v-6.487h4.054V77.894h-4.054v-6.487Zm-29.559 37.301H486v-6.487h6.487v-37.3H486v-6.487h25.948c2.906 0 5.649.324 8.231.973 2.581.635 4.865 1.527 6.852 2.676 2 1.135 3.791 2.486 5.372 4.054a22.29 22.29 0 0 1 3.933 5.15 24.992 24.992 0 0 1 2.371 5.918c.541 2.068.811 4.19.811 6.366a25.077 25.077 0 0 1-3.182 12.285 22.29 22.29 0 0 1-3.933 5.149 25.923 25.923 0 0 1-5.372 4.075c-1.987 1.135-4.271 2.027-6.852 2.676-2.582.635-5.325.952-8.231.952Zm0-6.487c2.109 0 3.994-.466 5.656-1.398 1.663-.947 3.021-2.257 4.075-3.933 1.068-1.676 1.872-3.636 2.412-5.88.554-2.256.831-4.736.831-7.439 0-2.162-.162-4.176-.486-6.041-.324-1.865-.831-3.575-1.521-5.129-.689-1.568-1.54-2.899-2.554-3.993-1-1.109-2.216-1.967-3.649-2.575-1.432-.608-3.02-.912-4.764-.912h-6.487v37.3h6.487Z" fill="#000"/><path fill-rule="evenodd" clip-rule="evenodd" d="m434.621 161.481-.051.226c-1.5 6.5 1 15 10.5 15 6 0 9.5-6.5 9.5-9 0-6-3.5-8-6.5-8-3.5 0-6 1.5-6 5s1.5 4.5 3 4.5 2-1 2-2.5.5-2 1.5-2 1.5.5 1.5 2-1 5-5 5-6-3-6-7c0-4.5 4-8 9-8 6.5 0 9.5 5 9.5 11s-4 14-12 24l-.183-.139c-8.157-3.778-18.003-5.667-29.538-5.667-5.026 0-9.739.349-14.141 1.046-4.402.697-8.602 1.87-12.601 3.521-3.962 1.614-7.373 3.668-10.234 6.163-2.825 2.458-5.081 5.557-6.768 9.299-1.651 3.742-2.476 7.96-2.476 12.656 0 5.649 1.192 10.656 3.576 15.021 2.421 4.365 5.778 8.07 10.07 11.115-4.843 1.834-8.694 4.769-11.556 8.804-2.861 4.035-4.291 8.529-4.291 13.481 0 4.438 1.027 8.235 3.081 11.39 2.054 3.118 4.86 5.576 8.419 7.373-9.134 4.475-13.701 10.693-13.701 18.653 0 3.889.972 7.539 2.916 10.95 1.944 3.448 4.714 6.493 8.309 9.134 3.631 2.641 8.253 4.714 13.866 6.218 5.649 1.541 11.958 2.311 18.928 2.311 4.365 0 8.474-.165 12.325-.495 3.852-.294 7.832-.844 11.941-1.651 4.108-.807 7.831-1.871 11.17-3.191 3.338-1.321 6.529-3.082 9.574-5.283 3.044-2.164 5.594-4.677 7.648-7.538 2.091-2.825 3.742-6.254 4.952-10.29 1.211-3.998 1.816-8.455 1.816-13.37 0-10.198-3.466-17.517-10.399-21.955-6.897-4.439-18.103-6.658-33.62-6.658h-30.814c-1.1 0-2.109-.459-3.026-1.376-.917-.917-1.376-1.926-1.376-3.026 0-1.1.899-2.293 2.696-3.577 1.798-1.283 4.366-2.182 7.704-2.696 5.099 1.247 10.436 1.871 16.012 1.871 6.75 0 12.986-.715 18.708-2.146 5.759-1.431 10.877-3.54 15.352-6.328 4.475-2.824 7.978-6.511 10.51-11.06 2.567-4.585 3.851-9.812 3.851-15.681 0-7.851-2.733-14.472-8.198-19.864 1.797-1.431 3.539-3.082 5.227-4.952a51.307 51.307 0 0 0 4.732-6.108 32.065 32.065 0 0 0 3.522-6.988c.88-2.458 1.32-4.806 1.32-7.043 0-2.165-.128-4.127-.385-5.888a23.152 23.152 0 0 0-1.321-5.337c-.66-1.798-1.522-3.375-2.586-4.732-1.064-1.358-2.458-2.605-4.182-3.742-1.687-1.137-3.668-2.054-5.942-2.751a17.986 17.986 0 0 0-5.393-.826c-4.878 0-9.042 1.725-12.49 5.173-1.784 1.784-3.102 3.768-3.953 5.953Zm-29.832 46.155c2.935-2.972 6.988-4.457 12.16-4.457 5.136 0 9.171 1.504 12.106 4.512 2.934 3.008 4.402 7.281 4.402 12.82 0 5.576-1.486 9.96-4.457 13.151-2.935 3.155-6.952 4.732-12.051 4.732-5.135 0-9.17-1.559-12.105-4.677-2.935-3.155-4.402-7.556-4.402-13.206 0-5.612 1.449-9.904 4.347-12.875Zm-10.95 92.385c0-4.328 2.109-7.996 6.328-11.004h31.089c2.201 0 4.218.917 6.052 2.751 1.834 1.834 2.752 3.851 2.752 6.052 0 8.804-8.804 13.206-26.412 13.206-7.777 0-13.023-.752-15.737-2.256-2.715-1.467-4.072-4.383-4.072-8.749Zm-68.375-138.54-.051.226c-1.5 6.5 1 15 10.5 15 6 0 9.5-6.5 9.5-9 0-6-3.5-8-6.5-8-3.5 0-6 1.5-6 5s1.5 4.5 3 4.5 2-1 2-2.5.5-2 1.5-2 1.5.5 1.5 2-1 5-5 5-6-3-6-7c0-4.5 4-8 9-8 6.5 0 9.5 5 9.5 11s-4 14-12 24l-.184-.139c-8.156-3.778-18.002-5.667-29.537-5.667-5.026 0-9.74.349-14.142 1.046-4.402.697-8.602 1.87-12.6 3.521-3.962 1.614-7.373 3.668-10.235 6.163-2.824 2.458-5.08 5.557-6.768 9.299-1.65 3.742-2.476 7.96-2.476 12.656 0 5.649 1.192 10.656 3.577 15.021 2.421 4.365 5.777 8.07 10.069 11.115-4.842 1.834-8.694 4.769-11.555 8.804-2.861 4.035-4.292 8.529-4.292 13.481 0 4.438 1.027 8.235 3.082 11.39 2.054 3.118 4.86 5.576 8.418 7.373-9.134 4.475-13.701 10.693-13.701 18.653 0 3.889.972 7.539 2.917 10.95 1.944 3.448 4.713 6.493 8.308 9.134 3.632 2.641 8.254 4.714 13.866 6.218 5.65 1.541 11.959 2.311 18.929 2.311 4.365 0 8.473-.165 12.325-.495 3.852-.294 7.832-.844 11.94-1.651 4.109-.807 7.832-1.871 11.17-3.191 3.338-1.321 6.53-3.082 9.575-5.283 3.044-2.164 5.594-4.677 7.648-7.538 2.091-2.825 3.742-6.254 4.952-10.29 1.211-3.998 1.816-8.455 1.816-13.37 0-10.198-3.467-17.517-10.4-21.955-6.896-4.439-18.103-6.658-33.619-6.658h-30.814c-1.101 0-2.109-.459-3.026-1.376-.917-.917-1.376-1.926-1.376-3.026 0-1.1.899-2.293 2.696-3.577 1.798-1.283 4.365-2.182 7.704-2.696 5.098 1.247 10.436 1.871 16.012 1.871 6.749 0 12.985-.715 18.708-2.146 5.759-1.431 10.876-3.54 15.352-6.328 4.475-2.824 7.978-6.511 10.509-11.06 2.568-4.585 3.852-9.812 3.852-15.681 0-7.851-2.733-14.472-8.199-19.864 1.798-1.431 3.54-3.082 5.228-4.952a51.307 51.307 0 0 0 4.732-6.108 32.017 32.017 0 0 0 3.521-6.988c.881-2.458 1.321-4.806 1.321-7.043 0-2.165-.128-4.127-.385-5.888a23.203 23.203 0 0 0-1.321-5.337c-.66-1.798-1.522-3.375-2.586-4.732-1.064-1.358-2.458-2.605-4.182-3.742-1.687-1.137-3.668-2.054-5.942-2.751a17.991 17.991 0 0 0-5.393-.826c-4.879 0-9.042 1.725-12.49 5.173-1.784 1.784-3.102 3.768-3.953 5.953Zm-29.832 46.155c2.934-2.972 6.988-4.457 12.16-4.457 5.136 0 9.171 1.504 12.105 4.512 2.935 3.008 4.402 7.281 4.402 12.82 0 5.576-1.485 9.96-4.457 13.151-2.934 3.155-6.951 4.732-12.05 4.732-5.135 0-9.171-1.559-12.105-4.677-2.935-3.155-4.402-7.556-4.402-13.206 0-5.612 1.449-9.904 4.347-12.875Zm-10.95 92.385c0-4.328 2.109-7.996 6.328-11.004h31.088c2.201 0 4.219.917 6.053 2.751 1.834 1.834 2.751 3.851 2.751 6.052 0 8.804-8.804 13.206-26.411 13.206-7.777 0-13.023-.752-15.737-2.256-2.715-1.467-4.072-4.383-4.072-8.749Z" fill="#000"/></svg>