<svg xmlns="http://www.w3.org/2000/svg" width="156" height="181" fill="none"><g transform="translate(3 20.5)"><g><defs><radialGradient id="idid_MoLWm3iKNg-1596269822" cy="1.1612903225806452" cx="0.5967741935483871" r="0.4134193548387099" gradientTransform="translate(0.5967741935483871, 1.1612903225806452) scale(1 1) translate(-0.5967741935483871, -1.1612903225806452)"><stop offset="0" stop-color="rgb(14,13,16)" stop-opacity="1"></stop><stop offset="1" stop-color="rgb(59,54,65)" stop-opacity="1"></stop></radialGradient></defs><path d="M 0 15.5 C 0 6.94 6.94 0 15.5 0 C 24.06 0 31 6.94 31 15.5 C 31 24.06 24.06 31 15.5 31 C 6.94 31 0 24.06 0 15.5 Z" fill="url(#idid_MoLWm3iKNg-1596269822)"></path></g></g><path d="M 8 32.5 C 8 30.567 9.567 29 11.5 29 C 13.433 29 15 30.567 15 32.5 C 15 34.433 13.433 36 11.5 36 C 9.567 36 8 34.433 8 32.5 Z" fill="rgb(252,240,247)"></path><path d="M 20 44 C 9.6 44 5 49.333 4 52 L 19 56 L 34.5 52 C 34 49.333 30.4 44 20 44 Z" fill="rgb(241,28,108)"></path><path d="M 139 44 C 128.6 44 124 49.333 123 52 L 138.25 56.5 L 153.5 52 C 153 49.333 149.4 44 139 44 Z" fill="rgb(241,28,108)"></path><g transform="translate(20 63.5)"><g><defs><radialGradient id="idid_F9tFDjVdBg-1062665265" cy="0.6784484536082475" cx="0.6709401709401709" r="0.9761907216494844" gradientTransform="translate(0.6709401709401709, 0.6784484536082475) scale(1 1) translate(-0.6709401709401709, -0.6784484536082475)"><stop offset="0" stop-color="rgb(254,114,166)" stop-opacity="1"></stop><stop offset="1" stop-color="rgb(252,1,114)" stop-opacity="1"></stop></radialGradient></defs><path d="M 48.5 97 C 21.714 97 0 75.286 0 48.5 L 0 48.5 C 0 21.714 21.714 0 48.5 0 L 68.5 0 C 95.286 0 117 21.714 117 48.5 L 117 48.5 C 117 75.286 95.286 97 68.5 97 Z" fill="url(#idid_F9tFDjVdBg-1062665265)"></path></g><path d="M 48.5 95 C 22.819 95 2 74.181 2 48.5 L 2 48.5 C 2 22.819 22.819 2 48.5 2 L 68.5 2 C 94.181 2 115 22.819 115 48.5 L 115 48.5 C 115 74.181 94.181 95 68.5 95 Z" fill="transparent" stroke-width="4" stroke="rgb(198,0,87)" stroke-miterlimit="10" stroke-dasharray=""></path></g><g transform="translate(57 85.5)"><path d="M 6 53 C 2.686 53 0 50.314 0 47 L 0 6 C 0 2.686 2.686 0 6 0 L 6 0 C 9.314 0 12 2.686 12 6 L 12 47 C 12 50.314 9.314 53 6 53 Z" fill="rgb(32,7,49)"></path></g><g transform="translate(88 85.5)"><path d="M 6 53 C 2.686 53 0 50.314 0 47 L 0 6 C 0 2.686 2.686 0 6 0 L 6 0 C 9.314 0 12 2.686 12 6 L 12 47 C 12 50.314 9.314 53 6 53 Z" fill="rgb(32,7,49)"></path></g><g transform="translate(121 34)"><g><defs><radialGradient id="idid_oKx2PhkD1g-1596269810" cy="9" cx="4.28125" r="0.4134204984154452" gradientTransform="translate(4.28125, 9) scale(1 1) translate(-4.28125, -9)"><stop offset="0" stop-color="rgb(14,13,16)" stop-opacity="1"></stop><stop offset="1" stop-color="rgb(59,54,65)" stop-opacity="1"></stop></radialGradient></defs><path d="M 2 4 C 0.895 4 0 3.105 0 2 L 0 2 C 0 0.895 0.895 0 2 0 L 30 0 C 31.105 0 32 0.895 32 2 L 32 2 C 32 3.105 31.105 4 30 4 Z" fill="url(#idid_oKx2PhkD1g-1596269810)"></path></g></g></svg>